<svg width="16" height="16" viewBox="0 0 16 16" fill="none" xmlns="http://www.w3.org/2000/svg">
<g opacity="0.5">
<path d="M2.66663 4.66654C2.66663 4.29835 2.9651 3.99988 3.33329 3.99988H3.99996C4.36815 3.99988 4.66663 4.29835 4.66663 4.66654C4.66663 5.03473 4.36815 5.33321 3.99996 5.33321H3.33329C2.9651 5.33321 2.66663 5.03473 2.66663 4.66654ZM5.99996 4.66654C5.99996 4.29835 6.29844 3.99988 6.66663 3.99988H12.6666C13.0348 3.99988 13.3333 4.29835 13.3333 4.66654C13.3333 5.03473 13.0348 5.33321 12.6666 5.33321H6.66663C6.29844 5.33321 5.99996 5.03473 5.99996 4.66654ZM2.66663 7.99988C2.66663 7.63169 2.9651 7.33321 3.33329 7.33321H3.99996C4.36815 7.33321 4.66663 7.63169 4.66663 7.99988C4.66663 8.36807 4.36815 8.66654 3.99996 8.66654H3.33329C2.9651 8.66654 2.66663 8.36807 2.66663 7.99988ZM5.99996 7.99988C5.99996 7.63169 6.29844 7.33321 6.66663 7.33321H12.6666C13.0348 7.33321 13.3333 7.63169 13.3333 7.99988C13.3333 8.36807 13.0348 8.66654 12.6666 8.66654H6.66663C6.29844 8.66654 5.99996 8.36807 5.99996 7.99988ZM2.66663 11.3332C2.66663 10.965 2.9651 10.6665 3.33329 10.6665H3.99996C4.36815 10.6665 4.66663 10.965 4.66663 11.3332C4.66663 11.7014 4.36815 11.9999 3.99996 11.9999H3.33329C2.9651 11.9999 2.66663 11.7014 2.66663 11.3332ZM5.99996 11.3332C5.99996 10.965 6.29844 10.6665 6.66663 10.6665H12.6666C13.0348 10.6665 13.3333 10.965 13.3333 11.3332C13.3333 11.7014 13.0348 11.9999 12.6666 11.9999H6.66663C6.29844 11.9999 5.99996 11.7014 5.99996 11.3332Z" fill="#1C1D22"/>
</g>
</svg>
