<svg width="18" height="18" viewBox="0 0 18 18" fill="none" xmlns="http://www.w3.org/2000/svg">
<g opacity="0.5">
<path d="M14.5972 4.1818C14.0817 3.61948 13.1509 3.58483 12.5304 4.20533L6.45535 10.2803C6.29825 10.4374 6.29825 10.6376 6.45535 10.7947C6.61246 10.9518 6.81259 10.9518 6.96969 10.7947L11.9947 5.76967C12.2876 5.47678 12.7625 5.47678 13.0554 5.76967C13.3482 6.06257 13.3482 6.53744 13.0554 6.83033L8.03035 11.8553C7.28746 12.5982 6.13759 12.5982 5.39469 11.8553C4.6518 11.1124 4.6518 9.96257 5.39469 9.21967L11.4697 3.14467C12.6453 1.96903 14.5559 1.93077 15.6918 3.15616C16.856 4.33247 16.8903 6.23368 15.6697 7.366L8.55535 14.4803C6.91246 16.1232 4.33759 16.1232 2.69469 14.4803C1.0518 12.8374 1.0518 10.2626 2.69469 8.61967L8.76969 2.54467C9.06259 2.25178 9.53746 2.25178 9.83035 2.54467C10.1232 2.83757 10.1232 3.31244 9.83035 3.60533L3.75535 9.68033C2.69825 10.7374 2.69825 12.3626 3.75535 13.4197C4.81246 14.4768 6.43759 14.4768 7.49469 13.4197L14.6197 6.29467C14.6274 6.28699 14.6352 6.27948 14.6432 6.27214C15.2056 5.75668 15.2402 4.82584 14.6197 4.20533C14.612 4.19765 14.6045 4.18981 14.5972 4.1818Z" fill="#1C1D22"/>
</g>
</svg>
