<svg width="16" height="16" viewBox="0 0 16 16" fill="none" xmlns="http://www.w3.org/2000/svg">
<g opacity="0.5">
<path d="M2.66663 4.66661C2.66663 4.29842 2.9651 3.99994 3.33329 3.99994H3.99996C4.36815 3.99994 4.66663 4.29842 4.66663 4.66661C4.66663 5.0348 4.36815 5.33327 3.99996 5.33327H3.33329C2.9651 5.33327 2.66663 5.0348 2.66663 4.66661ZM5.99996 4.66661C5.99996 4.29842 6.29844 3.99994 6.66663 3.99994H12.6666C13.0348 3.99994 13.3333 4.29842 13.3333 4.66661C13.3333 5.0348 13.0348 5.33327 12.6666 5.33327H6.66663C6.29844 5.33327 5.99996 5.0348 5.99996 4.66661ZM2.66663 7.99994C2.66663 7.63175 2.9651 7.33327 3.33329 7.33327H3.99996C4.36815 7.33327 4.66663 7.63175 4.66663 7.99994C4.66663 8.36813 4.36815 8.66661 3.99996 8.66661H3.33329C2.9651 8.66661 2.66663 8.36813 2.66663 7.99994ZM5.99996 7.99994C5.99996 7.63175 6.29844 7.33327 6.66663 7.33327H12.6666C13.0348 7.33327 13.3333 7.63175 13.3333 7.99994C13.3333 8.36813 13.0348 8.66661 12.6666 8.66661H6.66663C6.29844 8.66661 5.99996 8.36813 5.99996 7.99994ZM2.66663 11.3333C2.66663 10.9651 2.9651 10.6666 3.33329 10.6666H3.99996C4.36815 10.6666 4.66663 10.9651 4.66663 11.3333C4.66663 11.7015 4.36815 11.9999 3.99996 11.9999H3.33329C2.9651 11.9999 2.66663 11.7015 2.66663 11.3333ZM5.99996 11.3333C5.99996 10.9651 6.29844 10.6666 6.66663 10.6666H12.6666C13.0348 10.6666 13.3333 10.9651 13.3333 11.3333C13.3333 11.7015 13.0348 11.9999 12.6666 11.9999H6.66663C6.29844 11.9999 5.99996 11.7015 5.99996 11.3333Z" fill="#1C1D22"/>
</g>
</svg>
